<svg width="512" height="512" viewBox="0 0 512 512" fill="none" xmlns="http://www.w3.org/2000/svg">
<path d="M121.242 512C113.304 512 107.113 509.454 102.668 504.362C98.2226 499.27 96 492.109 96 482.879V68.5054C96 45.7498 101.636 28.6434 112.907 17.186C124.179 5.72867 141.007 0 163.391 0H349.609C371.993 0 388.821 5.72867 400.093 17.186C411.364 28.6434 417 45.7498 417 68.5054V482.879C417 492.109 414.777 499.27 410.332 504.362C405.887 509.454 399.696 512 391.758 512C385.884 512 380.407 510.011 375.327 506.033C370.406 502.054 362.547 494.894 351.752 484.55L258.643 392.653C257.214 391.061 255.786 391.061 254.357 392.653L161.248 484.55C150.453 495.053 142.515 502.214 137.435 506.033C132.355 510.011 126.957 512 121.242 512Z" fill="black" style="fill:black;fill-opacity:1;"/>
</svg>
