<svg width="512" height="512" viewBox="0 0 512 512" fill="none" xmlns="http://www.w3.org/2000/svg">
<path d="M198.111 447.473H313.889V321.373C313.889 316.512 312.389 312.58 309.387 309.578C306.528 306.575 302.597 305.074 297.595 305.074H214.62C209.617 305.074 205.615 306.575 202.613 309.578C199.611 312.58 198.111 316.512 198.111 321.373V447.473ZM66.8945 434.82V264.542L243.136 116.782C251.712 109.491 260.288 109.491 268.864 116.782L445.106 264.542V434.82C445.106 449.689 440.817 461.269 432.241 469.562C423.808 477.854 412.087 482 397.079 482H115.136C99.9844 482 88.1206 477.854 79.5444 469.562C71.1111 461.269 66.8945 449.689 66.8945 434.82ZM18.4389 260.039C12.7214 260.039 8.21887 258.323 4.93132 254.892C1.64377 251.317 0 247.314 0 242.882C0 237.306 2.28699 232.66 6.86097 228.942L230.271 41.2939C238.276 34.4313 246.852 31 256 31C265.148 31 273.724 34.4313 281.729 41.2939L505.139 228.942C509.713 232.66 512 237.306 512 242.882C512 247.314 510.356 251.317 507.069 254.892C503.924 258.323 499.422 260.039 493.561 260.039C490.559 260.039 487.772 259.324 485.199 257.894C482.769 256.464 480.482 254.892 478.338 253.176L263.504 72.8188C261.217 70.8172 258.716 69.8165 256 69.8165C253.284 69.8165 250.783 70.8172 248.496 72.8188L33.876 253.176C31.5891 254.892 29.1591 256.464 26.5863 257.894C24.1563 259.324 21.4405 260.039 18.4389 260.039ZM395.578 146.163V94.9077C395.578 90.1897 397.007 86.4725 399.866 83.7561C402.725 80.8967 406.441 79.4669 411.015 79.4669H433.956C438.673 79.4669 442.39 80.8967 445.106 83.7561C447.964 86.4725 449.394 90.1897 449.394 94.9077V191.627L395.578 146.163Z" fill="black" style="fill:black;fill-opacity:1;"/>
</svg>
