<svg width="512" height="512" viewBox="0 0 512 512" fill="none" xmlns="http://www.w3.org/2000/svg">
<g clip-path="url(#clip0_2198_3418)">
<path d="M333.206 333.221C350.848 315.579 379.444 315.579 397.086 333.221L498.759 434.864L501.847 438.305C516.323 456.049 515.3 482.233 498.759 498.774C482.219 515.314 456.034 516.337 438.291 501.862L434.85 498.774L333.206 397.101C315.564 379.459 315.564 350.863 333.206 333.221Z" fill="black" style="fill:black;fill-opacity:1;"/>
<path d="M374.782 232.58C374.782 154.04 311.119 90.3567 232.58 90.3499C154.036 90.3499 90.3499 154.036 90.3499 232.58C90.3567 311.119 154.04 374.782 232.58 374.782C311.115 374.775 374.775 311.115 374.782 232.58ZM465.131 232.58C465.125 361.014 361.014 465.125 232.58 465.131C104.141 465.131 0.00681399 361.018 0 232.58C0 104.137 104.137 0 232.58 0C361.018 0.0068141 465.131 104.141 465.131 232.58Z" fill="black" style="fill:black;fill-opacity:1;"/>
</g>
<defs>
<clipPath id="clip0_2198_3418">
<rect width="512" height="512" fill="white" style="fill:white;fill-opacity:1;"/>
</clipPath>
</defs>
</svg>
